<svg width="241" height="85" viewBox="0 0 241 85" fill="none" xmlns="http://www.w3.org/2000/svg">
<path d="M153.967 40.6541C153.967 44.1932 153.234 46.9002 151.77 48.7752C150.305 50.6502 148.16 51.5877 145.336 51.5877C142.547 51.5877 140.414 50.6678 138.938 48.8279C137.461 46.9881 136.705 44.3514 136.67 40.9178V36.2068C136.67 32.6326 137.408 29.9197 138.885 28.0682C140.373 26.2166 142.512 25.2908 145.301 25.2908C148.09 25.2908 150.223 26.2108 151.699 28.0506C153.176 29.8787 153.932 32.5096 153.967 35.9432V40.6541ZM148.887 35.4861C148.887 33.3651 148.594 31.824 148.008 30.8631C147.434 29.8904 146.531 29.4041 145.301 29.4041C144.105 29.4041 143.221 29.867 142.646 30.7928C142.084 31.7068 141.785 33.1424 141.75 35.0994V41.3221C141.75 43.408 142.031 44.9608 142.594 45.9803C143.168 46.9881 144.082 47.492 145.336 47.492C146.578 47.492 147.475 47.0057 148.025 46.033C148.576 45.0604 148.863 43.5721 148.887 41.5682V35.4861ZM179.543 36.3299H171.668V51.2361H166.588V32.2166H179.543V36.3299ZM198.791 41.9022C198.791 44.8318 198.123 47.1815 196.787 48.951C195.463 50.7088 193.67 51.5877 191.408 51.5877C189.486 51.5877 187.934 50.9197 186.75 49.5838V58.5486H181.67V32.2166H186.381L186.557 34.0799C187.787 32.6033 189.393 31.8651 191.373 31.8651C193.717 31.8651 195.539 32.7322 196.84 34.4666C198.141 36.201 198.791 38.5916 198.791 41.6385V41.9022ZM193.711 41.533C193.711 39.7635 193.395 38.3983 192.762 37.4373C192.141 36.4764 191.232 35.9959 190.037 35.9959C188.443 35.9959 187.348 36.6053 186.75 37.824V45.6111C187.371 46.8651 188.479 47.492 190.072 47.492C192.498 47.492 193.711 45.5057 193.711 41.533ZM218.443 51.2361H213.346V43.9236H207.035V51.2361H201.955V32.2166H207.035V39.8455H213.346V32.2166H218.443V51.2361ZM222.645 48.7401C222.645 47.9315 222.914 47.2752 223.453 46.7713C224.004 46.2674 224.689 46.0154 225.51 46.0154C226.342 46.0154 227.027 46.2674 227.566 46.7713C228.117 47.2752 228.393 47.9315 228.393 48.7401C228.393 49.5369 228.123 50.1873 227.584 50.6912C227.045 51.1834 226.354 51.4295 225.51 51.4295C224.678 51.4295 223.992 51.1834 223.453 50.6912C222.914 50.1873 222.645 49.5369 222.645 48.7401Z" fill="black"/>
<path d="M76.4091 27.4545L53.2273 2M14.5909 27.4545L37.7727 2M30.0455 52.9091V71.0909M60.9545 52.9091V71.0909M45.5 52.9091V71.0909M6.86364 42H84.1364L76.4091 82H14.5909L6.86364 42ZM3 27.4545H88V42H3V27.4545Z" stroke="#FF0000" stroke-width="4.16667"/>
</svg>
