<svg width="50" height="47" viewBox="0 0 50 47" fill="none" xmlns="http://www.w3.org/2000/svg">
<path d="M25.0067 15.7543C29.5972 15.7543 33.3434 19.2452 33.3434 23.5228C33.3434 27.8004 29.5972 31.2913 25.0067 31.2913C20.4162 31.2913 16.6699 27.8004 16.6699 23.5228C16.6699 19.2452 20.4162 15.7543 25.0067 15.7543ZM0.00272751 23.5228C0.00272751 20.3059 -0.0285454 17.1181 0.165333 13.9069C0.359211 10.1771 1.27231 6.86692 4.19924 4.1395C7.13242 1.40625 10.6785 0.561214 14.6811 0.380552C18.1334 0.199889 21.5544 0.229028 25.0004 0.229028C28.4527 0.229028 31.8737 0.199889 35.3197 0.380552C39.3224 0.561214 42.8747 1.41208 45.8016 4.1395C48.7348 6.87274 49.6417 10.1771 49.8355 13.9069C50.0294 17.1239 49.9981 20.3117 49.9981 23.5228C49.9981 26.734 50.0294 29.9276 49.8355 33.1387C49.6417 36.8685 48.7286 40.1787 45.8016 42.9062C42.8684 45.6394 39.3224 46.4844 35.3197 46.6651C31.8675 46.8458 28.4465 46.8166 25.0004 46.8166C21.5482 46.8166 18.1272 46.8458 14.6811 46.6651C10.6785 46.4844 7.12616 45.6336 4.19924 42.9062C1.26606 40.1729 0.359211 36.8685 0.165333 33.1387C-0.0347977 29.9276 0.00272751 26.7398 0.00272751 23.5228ZM25.0067 35.4757C32.1051 35.4757 37.8339 30.1374 37.8339 23.5228C37.8339 16.9083 32.1051 11.57 25.0067 11.57C17.9083 11.57 12.1795 16.9083 12.1795 23.5228C12.1795 30.1374 17.9083 35.4757 25.0067 35.4757ZM11.6541 13.872C13.3115 13.872 14.6499 12.6248 14.6499 11.0804C14.6499 9.53606 13.3115 8.2889 11.6541 8.2889C9.9968 8.2889 8.65842 9.53606 8.65842 11.0804C8.65793 11.4471 8.73508 11.8104 8.88546 12.1492C9.03583 12.4881 9.25647 12.7961 9.53475 13.0554C9.81303 13.3147 10.1435 13.5203 10.5071 13.6604C10.8708 13.8005 11.2606 13.8724 11.6541 13.872Z" fill="white"/>
</svg>
