<svg width="257" height="79" viewBox="0 0 257 79" fill="none" xmlns="http://www.w3.org/2000/svg">
<path d="M24.8363 32.8373C24.8544 33.154 24.6876 33.3095 24.3361 33.3038C24.1135 33.3001 23.4712 33.1607 22.4094 32.8855C21.3593 32.6105 20.712 32.4241 20.4675 32.3264C18.0022 33.2471 15.6446 33.6891 13.3949 33.6523C9.77432 33.5931 6.82469 32.3377 4.54605 29.8861C2.29023 27.47 1.19344 24.4458 1.25568 20.8135C1.31932 17.0992 2.48525 14.0359 4.75347 11.6234C7.0934 9.13005 10.0971 7.91336 13.7646 7.97332C15.5456 8.00243 17.2153 8.36962 18.7738 9.07487C20.4599 9.85254 21.7776 10.9289 22.7269 12.304C22.9212 12.5884 23.0174 12.7893 23.0154 12.9064C23.009 13.2814 22.4673 14.1164 21.3902 15.4115C20.3251 16.695 19.6402 17.3343 19.3356 17.3293C19.2653 17.3281 18.9999 17.0835 18.5395 16.5955C17.9751 16.012 17.3969 15.5571 16.8048 15.231C15.9225 14.7361 14.9424 14.4798 13.8644 14.4621C12.1068 14.4334 10.7012 15.0668 9.64762 16.3622C8.66613 17.5534 8.15993 19.0512 8.12901 20.8556C8.09629 22.7654 8.56837 24.2851 9.54526 25.4145C10.5567 26.5796 12.0056 27.1776 13.8921 27.2084C15.0873 27.228 16.4281 26.951 17.9147 26.3776C17.8862 25.9904 17.7976 25.0044 17.649 23.4197C17.5175 22.1987 17.4582 21.2132 17.4711 20.4633C17.4749 20.2407 17.5534 20.1072 17.7065 20.0628C17.7655 20.0403 17.8594 20.0301 17.9883 20.0322C18.3281 20.0378 18.8372 20.0813 19.5156 20.1627C20.2059 20.2326 20.7268 20.2704 21.0783 20.2761C21.4533 20.2823 22.0161 20.268 22.7668 20.2334C23.5177 20.1871 24.0806 20.167 24.4556 20.1731C24.7485 20.1779 24.8917 20.3736 24.885 20.7603C24.8754 21.3227 24.8257 22.1716 24.7359 23.307C24.6579 24.4426 24.614 25.2916 24.6044 25.8541C24.5785 27.3655 24.6511 29.6288 24.8221 32.6437L24.8363 32.8373ZM44.9785 24.9389C44.9631 25.8411 44.9928 27.1836 45.0677 28.9663C45.1427 30.749 45.1725 32.0856 45.1573 32.9761C45.1492 33.4448 44.9399 33.6934 44.5292 33.7218C43.0744 33.8035 41.4097 33.829 39.5349 33.7984C39.3123 33.7947 39.1657 33.4583 39.0951 32.7891C39.0365 32.1084 38.9545 31.7613 38.8493 31.7478C38.7547 31.7932 38.63 31.8908 38.475 32.0406C37.14 33.3432 35.7226 33.9822 34.2228 33.9577C31.938 33.9203 30.0611 32.9872 28.5922 31.1582C27.2034 29.4478 26.529 27.4209 26.5691 25.0775C26.6155 22.3708 27.3852 20.2034 28.8781 18.5753C30.4307 16.8895 32.531 16.0683 35.1791 16.1115C37.0187 16.1416 38.4606 16.8098 39.5048 18.1161C39.5506 18.1755 39.5911 18.2054 39.6263 18.206C39.7317 18.2077 39.8537 17.9284 39.9923 17.3681C40.1427 16.7963 40.3117 16.5119 40.4991 16.515C40.9327 16.522 41.7566 16.6586 42.971 16.9246C44.127 17.1779 44.9555 17.3907 45.4565 17.5629C45.6311 17.6361 45.7173 17.7313 45.7153 17.8484C45.7145 17.8953 45.6948 18.0181 45.6563 18.2167C45.245 20.3313 45.0191 22.5721 44.9785 24.9389ZM39.3173 24.9518C39.3344 23.9559 39.0321 23.1305 38.4104 22.4758C37.8006 21.8094 36.9919 21.4681 35.9842 21.4516C34.9765 21.4351 34.1567 21.744 33.5246 22.3783C32.8926 23.0126 32.5679 23.8336 32.5506 24.8412C32.5344 25.7903 32.8485 26.61 33.493 27.3003C34.1375 27.9906 34.9285 28.3434 35.8659 28.3588C36.8618 28.3751 37.6817 28.0661 38.3255 27.4321C38.9694 26.7862 39.3 25.9595 39.3173 24.9518ZM76.4228 33.5927C76.4157 34.0028 76.2361 34.2284 75.8837 34.2695C75.5314 34.3107 74.664 34.3199 73.2813 34.2973C71.8518 34.2739 70.9619 34.2242 70.6116 34.1482C70.2613 34.0721 70.0905 33.7822 70.0991 33.2784C70.1083 32.7394 70.1397 31.9371 70.1931 30.8714C70.2467 29.794 70.2781 28.9858 70.2874 28.4468C70.3225 26.3963 70.3241 24.9372 70.292 24.0694C70.2456 22.6739 69.5956 21.9659 68.3418 21.9454C67.7911 21.9364 67.2364 22.1617 66.6776 22.6214C66.1308 23.0696 65.8233 23.5744 65.7551 24.1358C65.6998 24.6272 65.6517 26.068 65.6107 28.4583C65.6013 29.009 65.6045 29.847 65.6204 30.9724C65.6364 32.0861 65.6397 32.9242 65.63 33.4866C65.6234 33.8733 65.4502 34.0638 65.1104 34.0583L59.7849 33.9712C59.4569 33.9658 59.2969 33.7229 59.3052 33.2426C59.3146 32.6919 59.3463 31.8661 59.4003 30.7653C59.4544 29.6644 59.4862 28.8328 59.4958 28.2704C59.5033 27.8369 59.5028 27.1805 59.4944 26.3014C59.486 25.4222 59.4857 24.76 59.4933 24.3147C59.522 22.6392 58.8978 21.791 57.6206 21.7701C57.105 21.7617 56.5451 21.9518 55.9407 22.3404C55.2771 22.7632 54.9412 23.2148 54.9329 23.6952C54.9147 24.7615 54.8932 26.3551 54.8686 28.476C54.844 30.597 54.8226 32.1848 54.8046 33.2393C54.7995 33.5322 54.7613 33.7133 54.6898 33.7824C54.6183 33.8516 54.4358 33.8955 54.1425 33.9141C53.6144 33.9524 52.7821 33.9622 51.6455 33.9436C50.9074 33.9315 50.0702 33.8827 49.134 33.7971C48.8532 33.769 48.684 33.7253 48.6264 33.6657C48.5806 33.6064 48.5601 33.4302 48.5652 33.1373C48.5812 32.1999 48.6111 30.7998 48.6547 28.937C48.6985 27.0625 48.7285 25.6566 48.7446 24.7192C48.7775 22.7976 48.6739 20.6335 48.4339 18.2269C48.4128 18.0859 48.4029 17.9803 48.4041 17.91C48.4075 17.7108 48.4919 17.5774 48.6571 17.5098C48.9167 17.4085 49.4045 17.3286 50.1204 17.27C51.0006 17.2023 51.5229 17.1581 51.6874 17.1374C51.8049 17.1159 52.2699 17.0004 53.0822 16.791C53.6591 16.6363 54.1234 16.5619 54.4749 16.5676C54.6975 16.5713 54.8077 16.9833 54.8053 17.8037C54.8032 18.6123 54.8431 19.0173 54.9251 19.0187C55.0431 18.9737 55.1793 18.8939 55.3336 18.7792C56.4022 17.9763 57.2438 17.4275 57.8583 17.1328C58.7679 16.714 59.75 16.5132 60.8046 16.5305C61.8826 16.5481 62.8392 16.804 63.6747 17.2982C64.6145 17.8527 65.2167 18.6185 65.4813 19.5956C66.1167 18.7621 66.9842 18.0672 68.0838 17.5109C69.1833 16.9546 70.2486 16.6848 71.2797 16.7017C72.8264 16.727 74.0799 17.1049 75.0402 17.8356C76.1277 18.6621 76.6587 19.8252 76.633 21.325C76.6223 21.946 76.5887 22.8831 76.532 24.1362C76.4756 25.3776 76.4421 26.3088 76.4314 26.9299C76.4188 27.668 76.4173 28.7814 76.4269 30.2701C76.4368 31.747 76.4354 32.8545 76.4228 33.5927ZM96.0139 25.0173C95.9937 26.2007 95.6013 26.8682 94.8369 27.0198C94.7076 27.0411 93.4927 27.1502 91.1921 27.347C89.8068 27.4767 87.7415 27.6246 84.9961 27.7907C85.1471 28.555 85.6351 29.1431 86.4602 29.5551C87.1342 29.8943 87.9047 30.0709 88.7718 30.0851C89.8146 30.1022 90.8681 29.8381 91.9323 29.2929C92.3824 29.019 92.8324 28.7451 93.2825 28.4711C93.5266 28.5923 93.9264 29.1966 94.4821 30.2839C95.0495 31.3715 95.3307 32.0617 95.3256 32.3546C95.3242 32.4367 95.2341 32.57 95.0551 32.7546C93.5993 34.2661 91.3657 34.9973 88.3544 34.9481C85.5657 34.9025 83.33 34.0514 81.6472 32.3947C79.9179 30.7139 79.077 28.4909 79.1243 25.7257C79.1705 23.0307 79.9934 20.8349 81.593 19.1382C83.2405 17.3836 85.4 16.5282 88.0715 16.5719C90.3212 16.6086 92.2171 17.4601 93.7591 19.1261C95.3011 20.7922 96.0527 22.7559 96.0139 25.0173ZM89.8808 23.8446C89.8932 23.1181 89.6464 22.4753 89.1403 21.9162C88.6342 21.3571 88.0237 21.0717 87.309 21.06C86.5708 21.0479 85.9562 21.3485 85.4651 21.9616C85.01 22.5285 84.7759 23.1986 84.7626 23.9719C84.7572 24.2882 84.9185 24.4491 85.2466 24.4545C86.1137 24.4686 87.4635 24.3559 89.296 24.1163C89.6836 24.0641 89.8786 23.9735 89.8808 23.8446Z" fill="#FF0000"/>
<path d="M169.605 56.9141C169.605 59.293 168.604 61.332 166.6 63.0312C164.842 64.5312 162.703 65.4863 160.184 65.8965C160.09 65.9082 160.014 65.9141 159.955 65.9141C159.686 65.9141 159.088 65.0938 158.162 63.4531C157.236 61.8008 156.773 60.793 156.773 60.4297C156.773 60.3008 156.861 60.2188 157.037 60.1836C158.736 59.7969 159.861 59.4688 160.412 59.1992C161.631 58.5898 162.24 57.6875 162.24 56.4922C162.24 55.7305 161.842 54.8809 161.045 53.9434C159.662 52.3496 158.912 51.4648 158.795 51.2891C157.986 50.0703 157.582 48.7227 157.582 47.2461C157.582 45.1016 158.572 43.3203 160.553 41.9023C162.17 40.7305 164.156 39.9688 166.512 39.6172C166.641 39.6055 166.74 39.5996 166.811 39.5996C166.986 39.5996 167.127 39.7402 167.232 40.0215C167.537 40.877 168.246 42.4238 169.359 44.6621C169.395 44.7324 169.412 44.791 169.412 44.8379C169.412 45.0371 169.307 45.1367 169.096 45.1367C169.002 45.1367 168.844 45.1191 168.621 45.084C168.398 45.0488 168.229 45.0312 168.111 45.0312C167.268 45.0312 166.529 45.2246 165.896 45.6113C165.135 46.0566 164.754 46.6777 164.754 47.4746C164.754 48.1895 165.176 49.0684 166.02 50.1113C167.508 51.9863 168.287 52.9707 168.357 53.0645C169.189 54.3535 169.605 55.6367 169.605 56.9141ZM189.943 52.2559L189.908 64.3848C189.908 64.7949 189.744 65.0234 189.416 65.0703C189.041 65.1172 188.186 65.1406 186.85 65.1406C185.561 65.1406 184.664 65.0938 184.16 65C183.773 64.9297 183.58 64.6777 183.58 64.2441C183.58 63.2363 183.598 61.7188 183.633 59.6914C183.668 57.6641 183.686 56.1465 183.686 55.1387C183.686 53.7676 182.988 53.082 181.594 53.082C181.125 53.082 180.574 53.2695 179.941 53.6445C179.25 54.0547 178.904 54.4824 178.904 54.9277V59.2695C178.904 59.832 178.916 60.6816 178.939 61.8184C178.963 62.9434 178.975 63.7871 178.975 64.3496C178.975 64.7832 178.793 65.0234 178.43 65.0703C178.066 65.1172 177.047 65.1406 175.371 65.1406C174.41 65.1406 173.719 65.0938 173.297 65C172.875 64.9062 172.664 64.7012 172.664 64.3848C172.664 63.459 172.67 62.0703 172.682 60.2188C172.693 58.3555 172.699 56.9609 172.699 56.0352C172.699 52.2031 172.658 49.0332 172.576 46.5254C172.541 45.6465 172.512 44.7676 172.488 43.8887C172.43 42.8691 172.324 41.9961 172.172 41.2695C172.137 41.1172 172.119 41.0059 172.119 40.9355C172.119 40.7598 172.207 40.6426 172.383 40.584C172.746 40.4785 173.279 40.4141 173.982 40.3906C174.92 40.3555 175.465 40.3262 175.617 40.3027C177.738 40.0566 178.799 39.9336 178.799 39.9336C178.986 39.9336 179.08 40.0566 179.08 40.3027C179.08 40.6777 179.057 41.1875 179.01 41.832C178.963 42.582 178.939 43.0918 178.939 43.3613C178.869 46.0098 178.834 48.1016 178.834 49.6367C178.834 49.8711 178.893 49.9883 179.01 49.9883C179.033 49.9883 179.332 49.7832 179.906 49.373C180.586 48.8926 181.236 48.5117 181.857 48.2305C182.783 47.8203 183.68 47.6152 184.547 47.6152C186.047 47.6152 187.301 48.0078 188.309 48.793C189.398 49.6367 189.943 50.791 189.943 52.2559ZM209.736 56.3516C209.736 59.0234 208.916 61.1914 207.275 62.8555C205.646 64.5195 203.502 65.3516 200.842 65.3516C198.264 65.3516 196.143 64.5312 194.479 62.8906C192.814 61.25 191.982 59.1406 191.982 56.5625C191.982 53.8438 192.779 51.6406 194.373 49.9531C195.967 48.2539 198.123 47.4043 200.842 47.4043C203.49 47.4043 205.635 48.2363 207.275 49.9004C208.916 51.5527 209.736 53.7031 209.736 56.3516ZM203.971 56.3516C203.971 55.4258 203.684 54.6113 203.109 53.9082C202.535 53.1934 201.791 52.8359 200.877 52.8359C199.951 52.8359 199.189 53.1992 198.592 53.9258C198.029 54.6055 197.748 55.4141 197.748 56.3516C197.748 57.3008 198.029 58.1152 198.592 58.7949C199.189 59.5215 199.951 59.8848 200.877 59.8848C201.791 59.8848 202.547 59.5215 203.145 58.7949C203.695 58.1152 203.971 57.3008 203.971 56.3516ZM231.27 56.5449C231.27 59.0527 230.531 61.1328 229.055 62.7852C227.531 64.4961 225.533 65.3516 223.061 65.3516C222.158 65.3516 221.191 65.1289 220.16 64.6836C219.129 64.2383 218.66 64.0156 218.754 64.0156C218.602 64.0156 218.525 64.1914 218.525 64.543C218.525 65.1406 218.555 66.0371 218.613 67.2324C218.672 68.4395 218.701 69.3418 218.701 69.9395C218.701 70.3145 218.508 70.502 218.121 70.502L214.535 70.5195C213.727 70.5195 213.205 70.4902 212.971 70.4316C212.619 70.3496 212.443 70.1328 212.443 69.7812L212.479 56.2461C212.479 53.5156 212.273 51.2129 211.863 49.3379C211.84 49.2207 211.828 49.1211 211.828 49.0391C211.828 48.8633 211.898 48.7461 212.039 48.6875C212.496 48.5117 213.369 48.3242 214.658 48.125C215.912 47.9258 216.82 47.8262 217.383 47.8262C217.84 47.8262 218.098 48.1309 218.156 48.7402C218.227 49.3379 218.309 49.6367 218.402 49.6367C218.285 49.6367 218.783 49.3203 219.896 48.6875C221.021 48.043 222.041 47.7207 222.955 47.7207C225.498 47.7207 227.531 48.5586 229.055 50.2344C230.531 51.8516 231.27 53.9551 231.27 56.5449ZM224.748 56.5098C224.748 55.5723 224.461 54.752 223.887 54.0488C223.266 53.3105 222.498 52.9414 221.584 52.9414C220.646 52.9414 219.896 53.3105 219.334 54.0488C218.842 54.7168 218.596 55.5371 218.596 56.5098C218.596 57.5059 218.854 58.332 219.369 58.9883C219.92 59.7031 220.682 60.0605 221.654 60.0605C223.717 60.0605 224.748 58.877 224.748 56.5098Z" fill="#FF0000"/>
<path d="M129.103 46.9124H149V65.0827H129.103V46.9124ZM110.45 19.657L121.642 37.8273H99.2574L110.45 19.657ZM139.051 37.8273C141.69 37.8273 144.22 36.8701 146.086 35.1663C147.952 33.4625 149 31.1517 149 28.7421C149 26.3326 147.952 24.0217 146.086 22.3179C144.22 20.6142 141.69 19.657 139.051 19.657C136.413 19.657 133.883 20.6142 132.017 22.3179C130.151 24.0217 129.103 26.3326 129.103 28.7421C129.103 31.1517 130.151 33.4625 132.017 35.1663C133.883 36.8701 136.413 37.8273 139.051 37.8273Z" fill="#0029FF" stroke="black" stroke-width="4.16667" stroke-linejoin="round"/>
<path d="M119.154 46.9124L99.2574 65.0827M99.2574 46.9124L119.154 65.0827L99.2574 46.9124Z" stroke="black" stroke-width="4.16667" stroke-linecap="round" stroke-linejoin="round"/>
</svg>
