<svg width="50" height="48" viewBox="0 0 50 48" fill="none" xmlns="http://www.w3.org/2000/svg">
<path fill-rule="evenodd" clip-rule="evenodd" d="M49.9999 23.7954C49.9999 36.6604 38.8062 47.0909 25 47.0909C11.1937 47.0909 0 36.6604 0 23.7954C0 10.9305 11.1937 0.499878 25 0.499878C38.8062 0.499878 49.9999 10.9305 49.9999 23.7954ZM25.8958 17.6978C23.4646 18.6393 18.6041 20.5903 11.3167 23.5489C10.1333 23.9876 9.51249 24.4166 9.45624 24.8359C9.36041 25.5465 10.3146 25.826 11.6104 26.2046C11.7875 26.257 11.9708 26.3094 12.1583 26.3676C13.4354 26.7539 15.1521 27.2063 16.0437 27.2237C16.8541 27.2393 17.7583 26.9287 18.7562 26.2919C25.5646 22.0075 29.0791 19.8429 29.3 19.7963C29.4562 19.7633 29.6729 19.7206 29.8187 19.8429C29.9645 19.9633 29.95 20.1924 29.9354 20.2545C29.8395 20.6292 26.1021 23.8692 24.1646 25.5465C23.5604 26.0687 23.1333 26.4395 23.0458 26.5249C22.85 26.7132 22.65 26.8937 22.4583 27.0665C21.2708 28.1303 20.3833 28.9301 22.5083 30.2347C23.5291 30.8617 24.3458 31.38 25.1604 31.8964C26.05 32.4613 26.9375 33.0243 28.0875 33.7271C28.3791 33.9057 28.6583 34.0901 28.9312 34.2706C29.9666 34.9598 30.8979 35.5771 32.0479 35.4801C32.7145 35.4218 33.4062 34.8375 33.7562 33.0923C34.5833 28.9651 36.2125 20.0274 36.5895 16.3428C36.6125 16.0369 36.5985 15.7295 36.5479 15.4265C36.5176 15.1818 36.3897 14.9566 36.1895 14.7956C35.8916 14.5684 35.4291 14.5199 35.2208 14.5238C34.2812 14.5393 32.8395 15.0072 25.8958 17.6978V17.6978Z" fill="white"/>
</svg>
